<svg id="Layer_1" data-name="Layer 1" xmlns="http://www.w3.org/2000/svg" viewBox="0 0 996 1574.04"><defs><style>.cls-1{fill:#aaa;}.cls-2{fill:#c1c1c1;}.cls-3,.cls-4{fill:#ededed;}.cls-4{font-size:374.35px;font-family:Norwester-Regular, Norwester;}</style></defs><path class="cls-1" d="M7218.71,7009a11.37,11.37,0,0,1,1.19,15.46h0l-420.33,506.28v-8.19l130.81-766.14a5.34,5.34,0,0,1,2-3.4.7.7,0,0,0-.23.47l-.51-.77,13.87,5.4Z" transform="translate(-6787.82 -6372.14)"/><path class="cls-2" d="M7264.22,6606.41l-331.13,145.87c-.31.16-.78.47-.85.77s-.08.31-.08.47l-.39,2.47-.07.15-132.13,774.64v-826a12.51,12.51,0,0,1,3.78-9L7129.16,6373a3.11,3.11,0,0,1,4.94.77Z" transform="translate(-6787.82 -6372.14)"/><path class="cls-3" d="M7769.71,7532.86l-548.83-511.22-288.2-268.35-.23-.24.31.08,13.74,2.16,440,71.28,384.57,705.21A.9.9,0,0,1,7769.71,7532.86Z" transform="translate(-6787.82 -6372.14)"/><path class="cls-3" d="M7131.56,6372.15h638.58a1.94,1.94,0,0,1,1.47,3.19l-385,452.93Z" transform="translate(-6787.82 -6372.14)"/><text class="cls-4" transform="translate(0 1516.39) scale(0.88 1)">R . K . S</text></svg>